<svg width="267" height="196" viewBox="0 0 267 196" fill="none" xmlns="http://www.w3.org/2000/svg">
<path d="M144.923 177.689L34.6052 112.513C31.0932 110.539 28.0822 107.304 31.5052 105.182L142.215 41.3927C143.875 40.3627 146.396 39.6877 148.088 40.6727L263.874 107.863C267.386 109.901 268.016 115.58 264.517 117.637L159.461 177.587C157.256 178.865 154.755 179.547 152.206 179.565C149.656 179.583 147.146 178.936 144.923 177.689V177.689Z" fill="#5B36A0"/>
<path d="M144.923 174.681L34.6052 109.503C31.0932 107.528 28.0822 104.293 31.5052 102.171L142.215 38.3833C143.875 37.3543 146.396 36.6793 148.088 37.6633L263.874 104.853C267.386 106.892 268.016 112.57 264.517 114.628L159.461 174.577C157.256 175.856 154.755 176.538 152.206 176.556C149.657 176.574 147.147 175.928 144.923 174.68V174.681Z" fill="#6862E6"/>
<path style="mix-blend-mode:multiply" opacity="0.25" d="M154.019 88.6865L132.251 101.105C132.251 101.105 165.784 121.562 172.641 124.443L185.178 106.436" fill="url(#paint0_linear)"/>
<path style="mix-blend-mode:multiply" opacity="0.25" d="M146.499 148.263L124.725 135.87L102.951 148.288C102.951 148.288 114.291 155.208 125.131 161.562C132.013 156.694 138.902 151.774 146.499 148.262V148.263Z" fill="url(#paint1_linear)"/>
<path style="mix-blend-mode:multiply" opacity="0.46" d="M99.5874 71.7354L85.7764 79.6133C85.7764 79.6133 86.9464 86.8354 93.8044 89.7164L111.886 78.1404" fill="url(#paint2_linear)"/>
<path d="M106.348 79.6128C110.948 79.6128 114.678 76.987 114.678 73.7478C114.678 70.5087 110.948 67.8828 106.348 67.8828C101.747 67.8828 98.0176 70.5087 98.0176 73.7478C98.0176 76.987 101.747 79.6128 106.348 79.6128Z" fill="#68E1FD"/>
<path d="M106.342 72.8414C109.788 72.8414 112.582 71.6983 112.582 70.2884C112.582 68.8784 109.788 67.7354 106.342 67.7354C102.895 67.7354 100.102 68.8784 100.102 70.2884C100.102 71.6983 102.895 72.8414 106.342 72.8414Z" fill="#974C26"/>
<path d="M106.116 66.0311C106.116 64.8801 106.077 63.7281 105.987 62.5771C105.961 62.2771 105.933 61.9791 105.903 61.6831L105.839 61.0981C105.839 60.9251 105.749 60.4551 105.749 60.5001C105.71 60.2641 105.669 60.0301 105.627 59.8001C104.946 55.8921 103.428 52.1777 101.176 48.9121C100.328 50.9285 99.9056 53.098 99.934 55.2851C99.934 55.9281 99.985 56.5711 100.037 57.1751V57.5551C100.29 59.047 100.678 60.5129 101.195 61.9351C101.563 62.9718 102.013 63.9778 102.539 64.9441C103.107 66.032 103.723 67.094 104.385 68.1271C104.9 68.9371 105.389 69.6571 105.885 70.3461C106.039 68.9121 106.109 67.4711 106.115 66.0311H106.116ZM102.842 53.0851C102.875 52.9369 102.875 52.7833 102.842 52.6351C103 52.7981 103.157 52.9651 103.312 53.1371C103.157 53.093 102.996 53.0754 102.835 53.0851H102.842Z" fill="#999A1C"/>
<path d="M108.258 66.9179C108.901 65.9479 109.468 64.9879 110.014 63.9409C110.155 63.6749 110.293 63.4089 110.426 63.1429L110.689 62.6089L110.94 62.0559L111.217 61.4129C112.759 57.7546 113.49 53.8057 113.359 49.8379C111.551 51.0759 110.018 52.674 108.856 54.5319C108.523 55.0679 108.211 55.6173 107.923 56.1789L107.795 56.4159L107.762 56.5189C107.64 56.8089 107.518 57.0989 107.402 57.3939C106.976 58.5144 106.63 59.664 106.367 60.8339C106.117 61.9062 105.951 62.9966 105.871 64.0949C105.758 65.3156 105.702 66.5409 105.704 67.7669C105.704 68.7249 105.704 69.5999 105.762 70.4419C106.617 69.3039 107.479 68.1339 108.258 66.9179V66.9179ZM112.503 54.2559C112.604 54.1429 112.679 54.0089 112.722 53.8629C112.769 54.0859 112.81 54.3009 112.844 54.5069C112.744 54.4069 112.629 54.3219 112.504 54.2559H112.503Z" fill="#999A1C"/>
<path d="M108.213 69.7861C108.86 69.4651 109.503 69.1181 110.143 68.7451L110.625 68.4491L110.94 68.2491L111.249 68.0311L111.609 67.7671C113.62 66.2915 115.288 64.3981 116.498 62.2171C115.125 62.3052 113.785 62.6752 112.561 63.3041C112.207 63.4841 111.866 63.6841 111.525 63.8891L111.378 63.9791L111.326 64.0241L110.85 64.3781C110.257 64.8451 109.698 65.3551 109.178 65.9021C108.697 66.4001 108.256 66.9361 107.858 67.5031C107.412 68.1344 106.983 68.778 106.572 69.4331C106.264 69.9471 105.987 70.4291 105.742 70.8991C106.572 70.5521 107.402 70.1911 108.212 69.7861H108.213ZM114.593 64.3201C114.684 64.2919 114.768 64.2437 114.838 64.1791C114.791 64.3158 114.74 64.4508 114.684 64.5841C114.667 64.4944 114.637 64.4077 114.594 64.3271V64.3201H114.593ZM106.116 66.0311C106.116 64.8801 106.077 63.7281 105.987 62.5771C105.961 62.2771 105.933 61.9791 105.903 61.6831L105.839 61.0981C105.839 60.9251 105.749 60.4551 105.749 60.5001C105.71 60.2641 105.669 60.0301 105.627 59.8001C104.946 55.8921 103.428 52.1777 101.176 48.9121C100.328 50.9285 99.9056 53.098 99.934 55.2851C99.934 55.9281 99.985 56.5711 100.037 57.1751V57.5551C100.29 59.047 100.678 60.5129 101.195 61.9351C101.563 62.9718 102.013 63.9778 102.539 64.9441C103.107 66.032 103.723 67.094 104.385 68.1271C104.9 68.9371 105.389 69.6571 105.885 70.3461C106.039 68.9121 106.109 67.4711 106.115 66.0311H106.116ZM102.842 53.0851C102.875 52.9369 102.875 52.7833 102.842 52.6351C103 52.7981 103.157 52.9651 103.312 53.1371C103.157 53.093 102.996 53.0754 102.835 53.0851H102.842Z" fill="#999A1C"/>
<path d="M108.258 66.9179C108.901 65.9479 109.468 64.9879 110.014 63.9409C110.155 63.6749 110.293 63.4089 110.426 63.1429L110.689 62.6089L110.94 62.0559L111.217 61.4129C112.759 57.7546 113.49 53.8057 113.359 49.8379C111.551 51.0759 110.018 52.674 108.856 54.5319C108.523 55.0679 108.211 55.6173 107.923 56.1789L107.795 56.4159L107.762 56.5189C107.64 56.8089 107.518 57.0989 107.402 57.3939C106.976 58.5144 106.63 59.664 106.367 60.8339C106.117 61.9062 105.951 62.9966 105.871 64.0949C105.758 65.3156 105.702 66.5409 105.704 67.7669C105.704 68.7249 105.704 69.5999 105.762 70.4419C106.617 69.3039 107.479 68.1339 108.258 66.9179V66.9179ZM112.503 54.2559C112.604 54.1429 112.679 54.0089 112.722 53.8629C112.769 54.0859 112.81 54.3009 112.844 54.5069C112.744 54.4069 112.629 54.3219 112.504 54.2559H112.503Z" fill="#999A1C"/>
<path d="M108.213 69.7858C108.86 69.4648 109.503 69.1178 110.143 68.7448L110.625 68.4488L110.94 68.2488L111.249 68.0308L111.609 67.7668C113.62 66.2912 115.288 64.3978 116.498 62.2168C115.125 62.3049 113.785 62.6749 112.561 63.3038C112.207 63.4838 111.866 63.6838 111.525 63.8888L111.378 63.9788L111.326 64.0238L110.85 64.3778C110.257 64.8448 109.698 65.3548 109.178 65.9018C108.697 66.3998 108.256 66.9358 107.858 67.5028C107.412 68.1341 106.983 68.7777 106.572 69.4328C106.264 69.9468 105.987 70.4288 105.742 70.8988C106.572 70.5518 107.402 70.1908 108.212 69.7858H108.213ZM114.593 64.3198C114.684 64.2915 114.768 64.2434 114.838 64.1788C114.791 64.3155 114.74 64.4505 114.684 64.5838C114.667 64.4941 114.637 64.4074 114.594 64.3268V64.3198H114.593Z" fill="#999A1C"/>
<path d="M162.665 83.8379L150.617 89.6259C150.163 89.8441 149.777 90.1818 149.501 90.6026C149.224 91.0235 149.068 91.5117 149.048 92.0148C149.028 92.5179 149.146 93.017 149.388 93.4583C149.63 93.8996 149.988 94.2666 150.424 94.5199L178.978 111.176C179.595 111.537 180.327 111.645 181.023 111.478C181.718 111.312 182.322 110.883 182.709 110.282L189.649 99.4909" fill="#A1482D"/>
<path d="M228.193 55.9209L132.123 0.576882C131.464 0.19802 130.717 -0.000922181 129.957 3.21371e-06C129.197 0.000928608 128.45 0.201689 127.792 0.582154C127.134 0.96262 126.587 1.50942 126.207 2.16772C125.827 2.82603 125.627 3.5727 125.626 4.33288V61.9079C125.626 63.1949 126.312 64.3839 127.426 65.0279L229.846 124.134C230.199 124.338 230.6 124.446 231.008 124.446C231.416 124.446 231.817 124.339 232.171 124.135C232.524 123.931 232.817 123.637 233.021 123.283C233.225 122.93 233.332 122.529 233.332 122.121V64.7829C233.33 62.9842 232.854 61.2177 231.952 59.6617C231.049 58.1058 229.753 56.8154 228.192 55.9209H228.193Z" fill="#F47B56"/>
<path d="M132.129 4.93062L225.298 58.5186C226.293 59.0912 227.12 59.9159 227.695 60.9095C228.269 61.9032 228.572 63.0307 228.572 64.1786V107.336C228.572 107.749 228.463 108.154 228.256 108.512C228.05 108.87 227.753 109.167 227.395 109.374C227.038 109.581 226.632 109.69 226.219 109.692C225.806 109.693 225.4 109.586 225.041 109.381L130.025 54.8986C129.67 54.6947 129.374 54.4006 129.169 54.0459C128.964 53.6912 128.855 53.2885 128.855 52.8786V6.82762C128.855 6.4443 128.956 6.06767 129.147 5.73552C129.339 5.40336 129.614 5.12736 129.946 4.93519C130.277 4.74301 130.654 4.64143 131.037 4.64063C131.42 4.63983 131.797 4.73983 132.129 4.93062V4.93062Z" fill="white"/>
<path d="M171.331 86.3333C172.43 86.1217 173.124 84.9324 172.882 83.6769C172.641 82.4215 171.554 81.5752 170.455 81.7868C169.357 81.9984 168.662 83.1877 168.904 84.4432C169.145 85.6986 170.232 86.5449 171.331 86.3333Z" fill="#AB643C"/>
<path opacity="0.32" d="M157.171 63.4843L200.468 89.4913L221.857 77.0603L183.641 54.8223" fill="url(#paint3_linear)"/>
<path d="M210.678 58.3071L163.868 29.7731C163.617 29.6283 163.332 29.5533 163.043 29.5557C162.753 29.5582 162.47 29.638 162.222 29.787C161.974 29.936 161.77 30.1487 161.632 30.403C161.494 30.6573 161.426 30.9439 161.437 31.2331V47.4901C161.434 47.7844 161.509 48.0742 161.652 48.3312C161.795 48.5883 162.002 48.8039 162.254 48.9571L209.057 76.8871C209.303 77.0267 209.581 77.0993 209.864 77.0975C210.147 77.0956 210.424 77.0195 210.669 76.8767C210.913 76.7339 211.115 76.5295 211.256 76.2839C211.396 76.0382 211.469 75.76 211.469 75.4771L211.713 60.3201C211.731 59.9235 211.645 59.529 211.463 59.1758C211.281 58.8227 211.011 58.5232 210.678 58.3071V58.3071Z" fill="#E2AC00"/>
<path d="M199.478 66.6727C201.157 69.0207 204.109 69.6767 206.065 68.1457C208.02 66.6157 208.245 63.4707 206.566 61.1297C204.887 58.7897 201.935 58.1267 199.979 59.6577C198.024 61.1877 197.799 64.3267 199.478 66.6737V66.6727Z" fill="white"/>
<path d="M194.885 55.4067L175.793 43.9147C175.63 43.8397 175.444 43.8281 175.272 43.8822C175.101 43.9362 174.955 44.052 174.864 44.2072C174.773 44.3624 174.742 44.546 174.778 44.7223C174.815 44.8986 174.915 45.0552 175.06 45.1617L194.152 56.6537C194.316 56.7287 194.502 56.7403 194.673 56.6863C194.845 56.6322 194.991 56.5164 195.082 56.3612C195.173 56.206 195.204 56.0225 195.167 55.8461C195.131 55.6698 195.03 55.5132 194.885 55.4067V55.4067ZM194.1 60.0757L167.785 44.2357C167.624 44.1791 167.448 44.1811 167.288 44.2413C167.128 44.3016 166.995 44.4162 166.911 44.5652C166.827 44.7142 166.798 44.8879 166.83 45.0559C166.861 45.2238 166.951 45.3753 167.083 45.4837L193.367 61.3297C193.531 61.4059 193.718 61.4184 193.89 61.3646C194.063 61.3108 194.209 61.1946 194.301 61.0387C194.392 60.8828 194.422 60.6984 194.385 60.5215C194.348 60.3445 194.247 60.1877 194.1 60.0817V60.0757Z" fill="#F2F2F2"/>
<path d="M201.337 61.4579L154.553 32.9309C154.303 32.7859 154.018 32.7106 153.728 32.7129C153.439 32.7153 153.155 32.7951 152.907 32.9441C152.659 33.0931 152.455 33.3059 152.317 33.5603C152.178 33.8148 152.111 34.1016 152.121 34.3909V50.6409C152.114 51.2409 152.421 51.7999 152.931 52.1139L199.735 80.0439C199.984 80.1867 200.266 80.2607 200.552 80.2585C200.839 80.2563 201.119 80.1779 201.366 80.0313C201.612 79.8847 201.815 79.6753 201.953 79.4244C202.092 79.1736 202.161 78.8904 202.154 78.6039L202.398 63.4449C202.409 63.0501 202.317 62.6594 202.131 62.311C201.945 61.9626 201.671 61.6686 201.337 61.4579Z" fill="#F47B56"/>
<path d="M190.139 69.8251C191.818 72.1721 194.77 72.8281 196.726 71.2981C198.681 69.7681 198.906 66.6221 197.227 64.2811C195.548 61.9411 192.596 61.2781 190.64 62.8091C188.685 64.3391 188.46 67.4781 190.139 69.8251Z" fill="white"/>
<path d="M185.546 58.5578L166.44 47.0658C166.276 46.9896 166.089 46.9772 165.917 47.031C165.744 47.0848 165.598 47.201 165.506 47.3569C165.415 47.5127 165.385 47.6971 165.422 47.8741C165.459 48.051 165.56 48.2078 165.707 48.3138L184.799 59.8058C184.963 59.8821 185.149 59.8945 185.322 59.8407C185.494 59.7869 185.641 59.6707 185.732 59.5148C185.824 59.359 185.854 59.1746 185.817 58.9976C185.78 58.8207 185.678 58.6639 185.532 58.5578H185.545H185.546ZM184.755 63.2588L158.445 47.3938C158.281 47.3176 158.094 47.3052 157.922 47.359C157.749 47.4128 157.603 47.529 157.511 47.6849C157.42 47.8407 157.39 48.0251 157.427 48.2021C157.464 48.379 157.565 48.5358 157.712 48.6418L184.028 64.4808C184.192 64.5571 184.378 64.5695 184.551 64.5157C184.723 64.4619 184.87 64.3457 184.961 64.1898C185.053 64.034 185.083 63.8496 185.046 63.6726C185.009 63.4957 184.907 63.3389 184.761 63.2328L184.755 63.2588Z" fill="#F2F2F2"/>
<path d="M189.597 63.3749L142.801 34.8469C142.551 34.7019 142.266 34.6266 141.976 34.629C141.687 34.6313 141.403 34.7111 141.155 34.8601C140.907 35.0091 140.703 35.2219 140.565 35.4764C140.426 35.7308 140.359 36.0176 140.369 36.3069V52.5579C140.367 52.852 140.442 53.1416 140.585 53.3985C140.728 53.6554 140.935 53.8709 141.186 54.0239L187.989 81.9539C188.238 82.0967 188.52 82.1708 188.806 82.1685C189.093 82.1663 189.374 82.0879 189.62 81.9413C189.866 81.7947 190.069 81.5853 190.207 81.3344C190.346 81.0836 190.415 80.8004 190.408 80.5139L190.652 65.3549C190.673 64.5549 190.272 63.8039 189.597 63.3749V63.3749Z" fill="#68E1FD"/>
<path d="M189.597 63.3749L142.801 34.8469C142.551 34.7019 142.266 34.6266 141.976 34.629C141.687 34.6313 141.403 34.7111 141.155 34.8601C140.907 35.0091 140.703 35.2219 140.565 35.4764C140.426 35.7308 140.359 36.0176 140.369 36.3069V52.5579C140.367 52.852 140.442 53.1416 140.585 53.3985C140.728 53.6554 140.935 53.8709 141.186 54.0239L187.989 81.9539C188.238 82.0967 188.52 82.1708 188.806 82.1685C189.093 82.1663 189.374 82.0879 189.62 81.9413C189.866 81.7947 190.069 81.5853 190.207 81.3344C190.346 81.0836 190.415 80.8004 190.408 80.5139L190.652 65.3549C190.673 64.5549 190.272 63.8039 189.597 63.3749V63.3749Z" fill="#68E1FD"/>
<path d="M178.392 71.7413C180.071 74.0893 183.023 74.7453 184.979 73.2143C186.934 71.6843 187.159 68.5393 185.48 66.1983C183.802 63.8583 180.849 63.1953 178.894 64.7253C176.938 66.2553 176.732 69.3953 178.392 71.7413V71.7413Z" fill="white"/>
<path d="M173.799 60.4742L154.701 48.9832C154.537 48.9061 154.35 48.893 154.177 48.9465C154.004 49 153.857 49.1163 153.765 49.2725C153.673 49.4287 153.643 49.6136 153.68 49.791C153.717 49.9683 153.82 50.1253 153.967 50.2312L173.059 61.7232C173.223 61.8003 173.41 61.8134 173.583 61.7599C173.756 61.7064 173.903 61.5901 173.995 61.4339C174.087 61.2776 174.117 61.0927 174.08 60.9154C174.042 60.738 173.94 60.581 173.793 60.4752H173.799V60.4742ZM173.008 65.1502L146.692 49.3102C146.528 49.234 146.341 49.2215 146.169 49.2753C145.996 49.3291 145.85 49.4453 145.758 49.6012C145.667 49.7571 145.637 49.9415 145.674 50.1184C145.711 50.2954 145.812 50.4522 145.959 50.5582L172.274 66.3982C172.438 66.4753 172.625 66.4884 172.798 66.4349C172.971 66.3814 173.118 66.2651 173.21 66.1089C173.302 65.9526 173.332 65.7677 173.295 65.5904C173.257 65.413 173.155 65.256 173.008 65.1502Z" fill="#F2F2F2"/>
<path d="M128.18 61.7803C125.156 64.3822 122.869 67.7331 121.548 71.4973C119.22 77.9273 125.041 88.4363 125.041 88.4363L134.098 81.2663" fill="#FF8F6F"/>
<path d="M127.202 146.803L124.744 145.446L125.388 141.935C125.388 141.935 129.048 142.282 129.369 143.581" fill="#003B94"/>
<path d="M128.103 146.751C128.656 146.411 129.235 146.108 129.808 145.806C131.229 145.028 133.281 144.224 134.156 142.764C134.335 142.469 134.42 142.126 134.399 141.782C134.378 141.437 134.253 141.107 134.04 140.835C132.754 139.279 129.936 141.838 128.496 140.115C128.213 139.774 128.077 134.365 128.077 134.365L122.597 135.845C122.597 135.845 121.671 146.713 121.774 147.382C121.876 148.05 123.761 148.668 123.761 148.668C124.322 148.549 124.858 148.331 125.344 148.025C125.916 147.607 125.395 142.507 126.128 143.221C126.862 143.935 127.183 146.726 127.183 146.726C127.488 146.772 127.797 146.78 128.103 146.751V146.751Z" fill="#F47B56"/>
<path d="M137.667 152.057L135.21 150.719L135.853 147.208C135.853 147.208 139.513 147.555 139.835 148.854" fill="#003B94"/>
<path d="M138.594 152.005C139.147 151.665 139.726 151.362 140.298 151.06C141.72 150.282 143.772 149.478 144.647 148.018C144.826 147.723 144.911 147.38 144.89 147.036C144.87 146.691 144.744 146.361 144.531 146.089C143.244 144.533 140.427 147.092 138.986 145.369C138.703 145.028 138.568 139.619 138.568 139.619L133.088 141.099C133.088 141.099 132.155 152.005 132.258 152.649C132.36 153.292 134.245 153.935 134.245 153.935C134.806 153.816 135.342 153.598 135.828 153.292C136.4 152.874 135.879 147.774 136.612 148.488C137.346 149.202 137.667 151.993 137.667 151.993C137.974 152.035 138.286 152.039 138.594 152.005Z" fill="#F47B56"/>
<path d="M119.811 116.726L118.196 138.314C118.196 138.314 120.769 141.864 129.396 139.89L129.479 125.337L119.811 116.726ZM129.775 121.003C129.588 122.861 129.775 143.363 129.775 143.363C129.775 143.363 132.161 147.825 142.55 143.363L142.402 125.941" fill="#3E2928"/>
<path d="M119 124.276C119.707 124.766 119.952 122.251 120.691 122.682C123.382 124.245 126.239 125.504 129.208 126.437H129.272C129.343 126.403 129.42 126.383 129.498 126.379C129.577 126.375 129.656 126.387 129.73 126.414C129.804 126.441 129.871 126.483 129.929 126.536C129.986 126.59 130.032 126.655 130.064 126.727C131.898 127.274 133.764 127.703 135.654 128.013C138.078 128.399 140.085 126.604 142.574 126.483C142.574 116.952 142.62 89.826 138.561 84.038L126.551 80C126.493 80.99 120.723 87.678 120.865 95.833C121.025 105.023 119.829 113.691 119.623 116.566C119.591 117.055 119.025 123.756 119 124.276V124.276Z" fill="#3E2928"/>
<path d="M139.674 72.6606L138.568 83.5936C138.568 83.5936 129.608 83.9536 125.748 81.2906V72.0176" fill="#FF8F6F"/>
<path d="M151.067 65.4653L150.154 66.7123C150.641 65.6976 151.07 64.6563 151.44 63.5933C151.698 62.8673 150.533 62.5773 150.276 63.3043L150.141 63.6773C150.253 63.2913 150.358 62.9033 150.456 62.5133C150.477 62.4361 150.483 62.3554 150.473 62.2759C150.462 62.1964 150.436 62.1198 150.396 62.0506C150.355 61.9814 150.302 61.921 150.238 61.8729C150.173 61.8248 150.1 61.7901 150.023 61.7707C149.945 61.7514 149.864 61.7478 149.785 61.7601C149.706 61.7725 149.63 61.8006 149.562 61.8428C149.494 61.885 149.435 61.9404 149.388 62.0057C149.342 62.0711 149.309 62.1451 149.292 62.2233C149.039 63.2328 148.737 64.2291 148.385 65.2083C148.581 64.3391 148.723 63.4583 148.81 62.5713C148.887 61.8063 147.684 61.8383 147.613 62.5713C147.513 63.5813 147.333 64.5813 147.073 65.5613C147.072 65.216 147.04 64.8716 146.976 64.5323C146.967 64.447 146.94 64.3645 146.897 64.2904C146.854 64.2162 146.796 64.1521 146.726 64.1023C146.693 63.9673 146.654 63.8338 146.61 63.7023C146.564 63.5675 146.473 63.4531 146.351 63.3792C146.229 63.3052 146.086 63.2765 145.945 63.2979C145.805 63.3194 145.676 63.3898 145.582 63.4967C145.488 63.6035 145.435 63.7401 145.432 63.8823L145.355 68.3843C145.137 68.8513 144.854 69.2843 144.513 69.6713C145.091 70.0713 145.65 70.5013 146.185 70.9573C146.663 71.3603 147.118 71.7903 147.549 72.2433C147.935 71.7633 148.306 71.2743 148.662 70.7773C148.706 70.7397 148.744 70.6963 148.777 70.6483C149.848 69.063 150.955 67.502 152.097 65.9663C152.573 65.4393 151.524 64.8543 151.067 65.4653V65.4653Z" fill="#FFB5A9"/>
<path d="M133.988 62.6934C133.988 62.6934 138.221 63.8314 139.938 66.5524C141.014 68.4349 141.962 70.3877 142.775 72.3974L145.901 67.5424C145.901 67.5424 149.696 68.7064 151.201 70.5714C151.201 70.5714 146.699 80.4114 142.775 81.2534C138.851 82.0954 134.683 75.4784 134.683 75.4784C134.683 75.4784 133.821 78.2434 133.988 75.2914" fill="#FF8F6F"/>
<path d="M136.677 73.2083C135.447 72.2077 134.518 70.8853 133.994 69.3883C133.486 67.6583 134.123 66.1403 134.714 64.5323C135.355 62.9387 135.729 61.2504 135.821 59.5353C135.873 57.8513 135.68 56.1653 135.564 54.4873C135.548 54.4155 135.548 54.341 135.564 54.2693C134.998 52.3713 133.84 50.7643 131.556 50.5713C125.645 50.0693 125.31 56.6163 125.356 59.2783C125.4 61.9413 125.684 63.7413 123.722 64.8543C121.76 65.9663 120.344 68.8863 122.216 71.2463C124.088 73.6063 122.409 72.7453 121.161 74.8413C119.914 76.9383 120.235 79.5553 122.795 80.5013C125.355 81.4463 137.255 79.6713 138.349 78.5713C138.738 78.1282 138.938 77.5516 138.909 76.9633C138.642 75.4835 137.85 74.15 136.677 73.2083Z" fill="#007F68"/>
<path d="M142.492 19.2124C143.494 20.6541 144.073 22.3471 144.164 24.1004C144.276 24.9032 144.081 25.7186 143.617 26.3834C143.42 26.6003 143.156 26.7452 142.867 26.7954C142.578 26.8456 142.281 26.7981 142.022 26.6604C141.697 26.5306 141.403 26.3328 141.16 26.0804C140.942 25.8759 140.755 25.64 140.607 25.3804L140.453 25.0784C140.411 25.1574 140.359 25.2304 140.298 25.2964C140.145 25.4164 139.963 25.4934 139.771 25.5214C139.449 25.5814 139.117 25.5414 138.819 25.4064C138.108 25.0988 137.516 24.568 137.133 23.8944C136.672 23.163 136.414 22.3217 136.387 21.4574C136.292 20.7574 136.511 20.0514 136.985 19.5274C137.189 19.3308 137.449 19.2019 137.728 19.1582C138.008 19.1146 138.295 19.1583 138.549 19.2834C138.807 19.3864 139.044 19.5344 139.249 19.7214C139.425 19.8704 139.581 20.0414 139.713 20.2294L139.829 20.4354V19.8624L141.115 20.3644L141.244 23.9784C141.253 24.2374 141.333 24.4884 141.475 24.7054C141.596 24.9144 141.781 25.0784 142.003 25.1754C142.625 25.4194 142.912 24.8834 142.865 23.5664C142.8 22.2629 142.37 21.0039 141.623 19.9334C140.952 18.8442 139.955 17.994 138.773 17.5034C138.344 17.2856 137.86 17.2016 137.383 17.2622C136.906 17.3229 136.459 17.5253 136.098 17.8434C135.714 18.2293 135.421 18.6967 135.242 19.211C135.062 19.7252 135.001 20.2732 135.062 20.8144C135.136 22.1932 135.58 23.5265 136.349 24.6734C136.961 25.8061 137.925 26.7089 139.095 27.2454C139.503 27.4154 139.94 27.5004 140.382 27.4954C140.669 27.5154 140.957 27.4624 141.218 27.3414L141.475 27.2004L142.254 28.6474L142.125 28.7374C142.003 28.8054 141.876 28.8664 141.745 28.9174C141.54 29.0064 141.324 29.0674 141.102 29.0974C140.818 29.1355 140.531 29.1355 140.247 29.0974C139.874 29.0528 139.509 28.9597 139.16 28.8204C138.17 28.3947 137.29 27.7482 136.587 26.9304C135.755 26.0103 135.081 24.9583 134.593 23.8174C134.104 22.7282 133.825 21.5569 133.769 20.3644C133.7 19.362 133.904 18.3595 134.361 17.4644C134.74 16.7131 135.395 16.1371 136.188 15.8564C137.019 15.5826 137.923 15.6282 138.722 15.9844C140.283 16.644 141.6 17.7724 142.492 19.2134V19.2124ZM139.655 23.7854C139.866 23.5154 139.961 23.1734 139.919 22.8334C139.909 22.4141 139.791 22.0045 139.578 21.6434C139.403 21.3283 139.13 21.0798 138.799 20.9364C138.672 20.8714 138.529 20.8464 138.388 20.8648C138.247 20.8832 138.115 20.9441 138.009 21.0394C137.898 21.1656 137.815 21.3142 137.766 21.4751C137.717 21.6361 137.703 21.8056 137.725 21.9724C137.74 22.3964 137.866 22.8084 138.092 23.1684C138.277 23.4944 138.564 23.7524 138.909 23.9014C139.156 24.0284 139.457 23.9814 139.655 23.7854V23.7854ZM218.441 88.8474C219.444 90.288 220.024 91.9811 220.113 93.7344C220.225 94.537 220.03 95.3524 219.567 96.0174C219.369 96.2336 219.105 96.3781 218.816 96.4282C218.527 96.4783 218.23 96.4313 217.971 96.2944C217.647 96.1627 217.353 95.9652 217.109 95.7144C216.892 95.5088 216.706 95.2731 216.556 95.0144L216.402 94.7124C216.358 94.7904 216.306 94.8635 216.247 94.9304C216.095 95.0504 215.913 95.1294 215.72 95.1554C215.401 95.2194 215.07 95.1814 214.774 95.0464C214.062 94.737 213.471 94.2041 213.089 93.5284C212.623 92.7964 212.363 91.9526 212.336 91.0854C212.237 90.3854 212.456 89.6774 212.935 89.1554C213.138 88.9596 213.396 88.8311 213.674 88.7875C213.953 88.7438 214.238 88.7871 214.491 88.9114C214.749 89.0134 214.987 89.1614 215.192 89.3484C215.368 89.5004 215.523 89.6734 215.656 89.8634L215.778 90.0684V89.4964L217.064 89.9914L217.193 93.6054C217.204 93.8644 217.284 94.1154 217.424 94.3324C217.545 94.5424 217.73 94.7064 217.952 94.8024C218.595 95.0464 218.859 94.5124 218.82 93.1944C218.755 91.8889 218.325 90.6279 217.579 89.5544C216.908 88.4691 215.914 87.6214 214.736 87.1304C214.308 86.9124 213.824 86.8277 213.347 86.8873C212.87 86.9468 212.422 87.1478 212.06 87.4644C211.678 87.8548 211.388 88.3263 211.213 88.844C211.039 89.3617 210.983 89.9122 211.05 90.4544C211.122 91.8333 211.566 93.167 212.336 94.3134C212.972 95.4194 213.947 96.2919 215.116 96.8024C215.523 96.9724 215.96 97.0594 216.402 97.0594C216.689 97.0764 216.976 97.0234 217.238 96.9044L217.495 96.7634L218.274 98.2104L218.144 98.3004C218.023 98.3694 217.896 98.4294 217.765 98.4804C217.559 98.5656 217.343 98.626 217.122 98.6604C216.836 98.6983 216.546 98.6983 216.26 98.6604C215.889 98.6134 215.526 98.5183 215.18 98.3774C214.19 97.9534 213.31 97.309 212.607 96.4934C211.774 95.5709 211.1 94.5166 210.612 93.3734C210.124 92.2846 209.844 91.1135 209.789 89.9214C209.719 88.9209 209.924 87.9202 210.381 87.0274C210.761 86.2751 211.415 85.6971 212.208 85.4124C213.042 85.1419 213.946 85.1882 214.748 85.5424C216.291 86.2361 217.581 87.3907 218.441 88.8474V88.8474ZM215.604 93.4194C215.817 93.1504 215.914 92.8084 215.874 92.4674C215.863 92.0475 215.743 91.6375 215.527 91.2774C215.356 90.9622 215.084 90.7134 214.755 90.5704C214.629 90.5044 214.486 90.4783 214.344 90.4956C214.203 90.5129 214.07 90.5728 213.964 90.6674C213.851 90.7925 213.767 90.9406 213.717 91.1016C213.667 91.2625 213.652 91.4323 213.674 91.5994C213.689 92.0214 213.816 92.4324 214.041 92.7894C214.226 93.1174 214.513 93.3774 214.858 93.5294C214.978 93.592 215.115 93.615 215.249 93.5953C215.383 93.5755 215.507 93.514 215.604 93.4194" fill="#F47B56"/>
<path style="mix-blend-mode:multiply" opacity="0.25" d="M90.2529 116.269L68.4789 103.883L46.7109 116.295C46.7109 116.295 58.8239 123.857 69.6619 130.211C76.5449 125.349 82.6619 119.787 90.2529 116.269V116.269Z" fill="url(#paint4_linear)"/>
<g filter="url(#filter0_d)">
<path d="M50.9297 81.4706V108.406L71.9137 120.423L95.6077 106.41V79.4756" fill="black"/>
</g>
<path d="M50.9297 81.4706V108.406L71.9137 120.423L95.6077 106.41V79.4756" fill="#FF9271"/>
<path d="M71.9131 93.4886V120.424L95.6071 106.411V79.4756L71.9131 93.4886Z" fill="#DF5C34"/>
<path d="M50.9297 81.4708L75.2767 67.5928L95.6067 79.4758L71.9137 93.4888L50.9297 81.4708Z" fill="#F47B56"/>
<path d="M72.4702 73.7746C74.939 73.6079 77.404 74.151 79.5742 75.3396C80.8172 76.0706 81.4962 76.8336 81.5922 77.6296C81.6882 78.4246 81.2782 79.1166 80.3112 79.6996C79.8524 79.983 79.3469 80.1828 78.8182 80.2896C78.3842 80.3926 77.9382 80.4386 77.4922 80.4246L77.0052 80.3866C77.0512 80.4956 77.0812 80.6096 77.0952 80.7266C77.0801 81.0033 76.9917 81.2711 76.8392 81.5026C76.5852 81.9326 76.2232 82.2886 75.7892 82.5346C74.7769 83.1361 73.6166 83.4426 72.4392 83.4196C71.2209 83.4526 70.017 83.1488 68.9602 82.5416C67.9612 81.9516 67.4492 81.2586 67.4102 80.4636C67.4141 80.0426 67.5362 79.6311 67.7627 79.2763C67.9893 78.9214 68.311 78.6373 68.6912 78.4566C69.0563 78.2288 69.4538 78.0578 69.8702 77.9496C70.202 77.8538 70.5435 77.7957 70.8882 77.7766H71.2412L70.6002 77.3916L72.4002 76.2696L76.5702 78.7256C76.8891 78.8973 77.2456 78.9872 77.6077 78.9872C77.9699 78.9872 78.3264 78.8973 78.6452 78.7256C79.5292 78.1746 79.2132 77.4496 77.6972 76.5516C76.0861 75.6642 74.2546 75.2568 72.4192 75.3776C70.474 75.4014 68.5711 75.9486 66.9102 76.9616C65.3992 77.9066 64.6502 79.0336 64.6622 80.3416C64.6622 81.6246 65.4622 82.7656 67.0192 83.6826C68.7192 84.6326 70.6482 85.0926 72.5922 85.0106C74.5285 85.0424 76.4356 84.5363 78.1012 83.5486C78.6774 83.2067 79.1942 82.7734 79.6312 82.2656C79.9242 81.9556 80.1432 81.5826 80.2722 81.1756L80.3622 80.7716L82.7382 80.9056C82.7422 80.9786 82.7422 81.0516 82.7382 81.1246C82.6952 81.3206 82.6372 81.5136 82.5652 81.7016C82.4622 82.0016 82.3252 82.2916 82.1552 82.5606C81.9112 82.9246 81.6282 83.2606 81.3102 83.5606C80.8902 83.9656 80.4302 84.3226 79.9332 84.6256C78.5032 85.484 76.9192 86.0547 75.2702 86.3056C73.4732 86.6194 71.6382 86.6518 69.8312 86.4016C68.1886 86.2082 66.6011 85.6894 65.1612 84.8756C63.9992 84.2599 63.0687 83.2831 62.5102 82.0926C62.2819 81.5731 62.1641 81.0119 62.1641 80.4446C62.1641 79.8772 62.2819 79.316 62.5102 78.7966C63.0636 77.5839 63.9849 76.5762 65.1432 75.9166C67.3501 74.5602 69.8803 73.8205 72.4702 73.7746V73.7746ZM74.8022 80.4056C74.7603 80.1864 74.6655 79.9808 74.5261 79.8065C74.3866 79.6322 74.2068 79.4946 74.0022 79.4056C73.4973 79.1082 72.9222 78.9512 72.3362 78.9506C71.792 78.9299 71.2535 79.0678 70.7862 79.3476C70.4022 79.5346 70.1552 79.9206 70.1462 80.3476C70.2042 80.7926 70.4912 81.1746 70.9012 81.3546C71.4173 81.6495 72.004 81.7981 72.5982 81.7846C73.1695 81.799 73.7333 81.6524 74.2252 81.3616C74.5982 81.1916 74.8352 80.8156 74.8282 80.4056" fill="#3E2928"/>
<defs>
<filter id="filter0_d" x="0.929688" y="54.4756" width="144.678" height="140.947" filterUnits="userSpaceOnUse" color-interpolation-filters="sRGB">
<feFlood flood-opacity="0" result="BackgroundImageFix"/>
<feColorMatrix in="SourceAlpha" type="matrix" values="0 0 0 0 0 0 0 0 0 0 0 0 0 0 0 0 0 0 127 0"/>
<feOffset dy="25"/>
<feGaussianBlur stdDeviation="25"/>
<feColorMatrix type="matrix" values="0 0 0 0 0.209139 0 0 0 0 0.0691446 0 0 0 0 0.478091 0 0 0 0.497159 0"/>
<feBlend mode="normal" in2="BackgroundImageFix" result="effect1_dropShadow"/>
<feBlend mode="normal" in="SourceGraphic" in2="effect1_dropShadow" result="shape"/>
</filter>
<linearGradient id="paint0_linear" x1="164.632" y1="101.865" x2="157.637" y2="111.343" gradientUnits="userSpaceOnUse">
<stop stop-color="#78B46A"/>
<stop offset="0.03" stop-color="#7F3500"/>
<stop offset="1" stop-color="white"/>
</linearGradient>
<linearGradient id="paint1_linear" x1="138.742" y1="143.213" x2="124.061" y2="159.307" gradientUnits="userSpaceOnUse">
<stop stop-color="#78B46A"/>
<stop offset="0.03" stop-color="#7F3500"/>
<stop offset="1" stop-color="white"/>
</linearGradient>
<linearGradient id="paint2_linear" x1="106.837" y1="75.6813" x2="95.8339" y2="87.7451" gradientUnits="userSpaceOnUse">
<stop stop-color="#78B46A"/>
<stop offset="0.03" stop-color="#7F3500"/>
<stop offset="1" stop-color="white"/>
</linearGradient>
<linearGradient id="paint3_linear" x1="209.577" y1="75.8171" x2="202.978" y2="71.0063" gradientUnits="userSpaceOnUse">
<stop stop-color="white" stop-opacity="0"/>
<stop offset="0.99" stop-color="#DC841E"/>
</linearGradient>
<linearGradient id="paint4_linear" x1="82.4951" y1="111.15" x2="67.6007" y2="127.478" gradientUnits="userSpaceOnUse">
<stop stop-color="#78B46A"/>
<stop offset="0.03" stop-color="#7F3500"/>
<stop offset="1" stop-color="white"/>
</linearGradient>
</defs>
</svg>
