<svg width="237" height="180" viewBox="0 0 237 180" fill="none" xmlns="http://www.w3.org/2000/svg">
<path d="M114.923 177.689L4.60522 112.513C1.09322 110.539 -1.91778 107.304 1.50522 105.182L112.215 41.3927C113.875 40.3627 116.396 39.6877 118.088 40.6727L233.874 107.863C237.386 109.901 238.016 115.58 234.517 117.637L129.461 177.587C127.256 178.865 124.755 179.547 122.206 179.565C119.656 179.583 117.146 178.936 114.923 177.689Z" fill="#5B36A0"/>
<path d="M114.923 174.681L4.60522 109.503C1.09322 107.528 -1.91778 104.293 1.50522 102.171L112.215 38.3833C113.875 37.3543 116.396 36.6793 118.088 37.6633L233.874 104.853C237.386 106.892 238.016 112.57 234.517 114.628L129.461 174.577C127.256 175.856 124.755 176.538 122.206 176.556C119.657 176.574 117.147 175.928 114.923 174.68V174.681Z" fill="#6862E6"/>
<path style="mix-blend-mode:multiply" opacity="0.25" d="M124.019 88.6865L102.251 101.105C102.251 101.105 135.784 121.562 142.641 124.443L155.178 106.436" fill="url(#paint0_linear)"/>
<path style="mix-blend-mode:multiply" opacity="0.25" d="M116.499 148.263L94.7252 135.87L72.9512 148.288C72.9512 148.288 84.2912 155.208 95.1312 161.562C102.013 156.694 108.902 151.774 116.499 148.262V148.263Z" fill="url(#paint1_linear)"/>
<path style="mix-blend-mode:multiply" opacity="0.46" d="M69.5874 71.7354L55.7764 79.6133C55.7764 79.6133 56.9464 86.8354 63.8044 89.7164L81.886 78.1404" fill="url(#paint2_linear)"/>
<path d="M76.348 79.6128C80.948 79.6128 84.678 76.987 84.678 73.7478C84.678 70.5087 80.948 67.8828 76.348 67.8828C71.747 67.8828 68.0176 70.5087 68.0176 73.7478C68.0176 76.987 71.747 79.6128 76.348 79.6128Z" fill="#68E1FD"/>
<path d="M76.3416 72.8414C79.7876 72.8414 82.5816 71.6983 82.5816 70.2884C82.5816 68.8784 79.7876 67.7354 76.3416 67.7354C72.8946 67.7354 70.1016 68.8784 70.1016 70.2884C70.1016 71.6983 72.8946 72.8414 76.3416 72.8414Z" fill="#974C26"/>
<path d="M76.116 66.0311C76.116 64.8801 76.077 63.7281 75.987 62.5771C75.961 62.2771 75.933 61.9791 75.903 61.6831L75.839 61.0981C75.839 60.9251 75.749 60.4551 75.749 60.5001C75.71 60.2641 75.669 60.0301 75.627 59.8001C74.946 55.8921 73.428 52.1777 71.176 48.9121C70.328 50.9285 69.9056 53.098 69.934 55.2851C69.934 55.9281 69.985 56.5711 70.037 57.1751V57.5551C70.29 59.047 70.678 60.5129 71.195 61.9351C71.563 62.9718 72.013 63.9778 72.539 64.9441C73.107 66.032 73.723 67.094 74.385 68.1271C74.9 68.9371 75.389 69.6571 75.885 70.3461C76.039 68.9121 76.109 67.4711 76.115 66.0311H76.116ZM72.842 53.0851C72.875 52.9369 72.875 52.7833 72.842 52.6351C73 52.7981 73.157 52.9651 73.312 53.1371C73.157 53.093 72.996 53.0754 72.835 53.0851H72.842Z" fill="#999A1C"/>
<path d="M78.2582 66.9179C78.9012 65.9479 79.4682 64.9879 80.0142 63.9409C80.1552 63.6749 80.2932 63.4089 80.4262 63.1429L80.6892 62.6089L80.9402 62.0559L81.2172 61.4129C82.7592 57.7546 83.4902 53.8057 83.3592 49.8379C81.5512 51.0759 80.0182 52.674 78.8562 54.5319C78.5232 55.0679 78.2111 55.6173 77.9231 56.1789L77.7951 56.4159L77.7622 56.5189C77.6402 56.8089 77.5182 57.0989 77.4022 57.3939C76.9762 58.5144 76.6301 59.664 76.3671 60.8339C76.1171 61.9062 75.9512 62.9966 75.8712 64.0949C75.7582 65.3156 75.7022 66.5409 75.7042 67.7669C75.7042 68.7249 75.7042 69.5999 75.7622 70.4419C76.6172 69.3039 77.4792 68.1339 78.2582 66.9179ZM82.5031 54.2559C82.6041 54.1429 82.6792 54.0089 82.7222 53.8629C82.7692 54.0859 82.8102 54.3009 82.8442 54.5069C82.7442 54.4069 82.6291 54.3219 82.5041 54.2559H82.5031Z" fill="#999A1C"/>
<path d="M78.213 69.7861C78.86 69.4651 79.503 69.1181 80.143 68.7451L80.625 68.4491L80.94 68.2491L81.249 68.0311L81.609 67.7671C83.62 66.2915 85.288 64.3981 86.498 62.2171C85.125 62.3052 83.785 62.6752 82.561 63.3041C82.207 63.4841 81.866 63.6841 81.525 63.8891L81.378 63.9791L81.326 64.0241L80.85 64.3781C80.257 64.8451 79.698 65.3551 79.178 65.9021C78.697 66.4001 78.256 66.9361 77.858 67.5031C77.412 68.1344 76.983 68.778 76.572 69.4331C76.264 69.9471 75.987 70.4291 75.742 70.8991C76.572 70.5521 77.402 70.1911 78.212 69.7861H78.213ZM84.593 64.3201C84.684 64.2919 84.768 64.2437 84.838 64.1791C84.791 64.3158 84.74 64.4508 84.684 64.5841C84.667 64.4944 84.637 64.4077 84.594 64.3271V64.3201H84.593ZM76.116 66.0311C76.116 64.8801 76.077 63.7281 75.987 62.5771C75.961 62.2771 75.933 61.9791 75.903 61.6831L75.839 61.0981C75.839 60.9251 75.749 60.4551 75.749 60.5001C75.71 60.2641 75.669 60.0301 75.627 59.8001C74.946 55.8921 73.428 52.1777 71.176 48.9121C70.328 50.9285 69.9056 53.098 69.934 55.2851C69.934 55.9281 69.985 56.5711 70.037 57.1751V57.5551C70.29 59.047 70.678 60.5129 71.195 61.9351C71.563 62.9718 72.013 63.9778 72.539 64.9441C73.107 66.032 73.723 67.094 74.385 68.1271C74.9 68.9371 75.389 69.6571 75.885 70.3461C76.039 68.9121 76.109 67.4711 76.115 66.0311H76.116ZM72.842 53.0851C72.875 52.9369 72.875 52.7833 72.842 52.6351C73 52.7981 73.157 52.9651 73.312 53.1371C73.157 53.093 72.996 53.0754 72.835 53.0851H72.842Z" fill="#999A1C"/>
<path d="M78.2582 66.9179C78.9012 65.9479 79.4682 64.9879 80.0142 63.9409C80.1552 63.6749 80.2932 63.4089 80.4262 63.1429L80.6892 62.6089L80.9402 62.0559L81.2172 61.4129C82.7592 57.7546 83.4902 53.8057 83.3592 49.8379C81.5512 51.0759 80.0182 52.674 78.8562 54.5319C78.5232 55.0679 78.2111 55.6173 77.9231 56.1789L77.7951 56.4159L77.7622 56.5189C77.6402 56.8089 77.5182 57.0989 77.4022 57.3939C76.9762 58.5144 76.6301 59.664 76.3671 60.8339C76.1171 61.9062 75.9512 62.9966 75.8712 64.0949C75.7582 65.3156 75.7022 66.5409 75.7042 67.7669C75.7042 68.7249 75.7042 69.5999 75.7622 70.4419C76.6172 69.3039 77.4792 68.1339 78.2582 66.9179ZM82.5031 54.2559C82.6041 54.1429 82.6792 54.0089 82.7222 53.8629C82.7692 54.0859 82.8102 54.3009 82.8442 54.5069C82.7442 54.4069 82.6291 54.3219 82.5041 54.2559H82.5031Z" fill="#999A1C"/>
<path d="M78.2132 69.7858C78.8602 69.4648 79.5032 69.1178 80.1432 68.7448L80.6252 68.4488L80.9402 68.2488L81.2492 68.0308L81.6092 67.7668C83.6202 66.2912 85.2882 64.3978 86.4982 62.2168C85.1252 62.3049 83.7852 62.6749 82.5612 63.3038C82.2072 63.4838 81.8662 63.6838 81.5252 63.8888L81.3782 63.9788L81.3262 64.0238L80.8502 64.3778C80.2572 64.8448 79.6982 65.3548 79.1782 65.9018C78.6972 66.3998 78.2562 66.9358 77.8582 67.5028C77.4122 68.1341 76.9832 68.7777 76.5722 69.4328C76.2642 69.9468 75.9872 70.4288 75.7422 70.8988C76.5722 70.5518 77.4022 70.1908 78.2122 69.7858H78.2132ZM84.5932 64.3198C84.6842 64.2915 84.7682 64.2434 84.8382 64.1788C84.7912 64.3155 84.7402 64.4505 84.6842 64.5838C84.6672 64.4941 84.6372 64.4074 84.5942 64.3268V64.3198H84.5932Z" fill="#999A1C"/>
<path d="M132.665 83.8379L120.617 89.6259C120.163 89.8441 119.777 90.1818 119.501 90.6026C119.224 91.0235 119.068 91.5117 119.048 92.0148C119.028 92.5179 119.146 93.017 119.388 93.4583C119.63 93.8996 119.988 94.2666 120.424 94.5199L148.978 111.176C149.595 111.537 150.327 111.645 151.023 111.478C151.718 111.312 152.322 110.883 152.709 110.282L159.649 99.4909" fill="#A1482D"/>
<path d="M198.193 55.9209L102.123 0.576882C101.464 0.19802 100.717 -0.000922181 99.957 3.21371e-06C99.197 0.000928608 98.45 0.201689 97.792 0.582154C97.134 0.96262 96.587 1.50942 96.207 2.16772C95.827 2.82603 95.627 3.5727 95.626 4.33288V61.9079C95.626 63.1949 96.312 64.3839 97.426 65.0279L199.846 124.134C200.199 124.338 200.6 124.446 201.008 124.446C201.416 124.446 201.817 124.339 202.171 124.135C202.524 123.931 202.817 123.637 203.021 123.283C203.225 122.93 203.332 122.529 203.332 122.121V64.7829C203.33 62.9842 202.854 61.2177 201.952 59.6617C201.049 58.1058 199.753 56.8154 198.192 55.9209H198.193Z" fill="#F47B56"/>
<path d="M102.129 4.93062L195.298 58.5186C196.293 59.0912 197.12 59.9159 197.695 60.9095C198.269 61.9032 198.572 63.0307 198.572 64.1786V107.336C198.572 107.749 198.463 108.154 198.256 108.512C198.05 108.87 197.753 109.167 197.395 109.374C197.038 109.581 196.632 109.69 196.219 109.692C195.806 109.693 195.4 109.586 195.041 109.381L100.025 54.8986C99.6705 54.6947 99.3745 54.4006 99.1695 54.0459C98.9645 53.6912 98.8555 53.2885 98.8555 52.8786V6.82762C98.8555 6.4443 98.9565 6.06767 99.1475 5.73552C99.3395 5.40336 99.6145 5.12736 99.9465 4.93519C100.277 4.74301 100.654 4.64143 101.037 4.64063C101.42 4.63983 101.797 4.73983 102.129 4.93062Z" fill="white"/>
<path d="M141.331 86.3328C142.43 86.1212 143.124 84.9319 142.882 83.6764C142.641 82.421 141.554 81.5747 140.455 81.7863C139.357 81.9979 138.662 83.1872 138.904 84.4427C139.145 85.6981 140.232 86.5444 141.331 86.3328Z" fill="#AB643C"/>
<path opacity="0.32" d="M127.171 63.4843L170.468 89.4913L191.857 77.0603L153.641 54.8223" fill="url(#paint3_linear)"/>
<path d="M180.678 58.3071L133.868 29.7731C133.617 29.6283 133.332 29.5533 133.043 29.5557C132.753 29.5582 132.47 29.638 132.222 29.787C131.974 29.936 131.77 30.1487 131.632 30.403C131.494 30.6573 131.426 30.9439 131.437 31.2331V47.4901C131.434 47.7844 131.509 48.0742 131.652 48.3312C131.795 48.5883 132.002 48.8039 132.254 48.9571L179.057 76.8871C179.303 77.0267 179.581 77.0993 179.864 77.0975C180.147 77.0956 180.424 77.0195 180.669 76.8767C180.913 76.7339 181.115 76.5295 181.256 76.2839C181.396 76.0382 181.469 75.76 181.469 75.4771L181.713 60.3201C181.731 59.9235 181.645 59.529 181.463 59.1758C181.281 58.8227 181.011 58.5232 180.678 58.3071Z" fill="#E2AC00"/>
<path d="M169.478 66.6727C171.157 69.0207 174.109 69.6767 176.065 68.1457C178.02 66.6157 178.245 63.4707 176.566 61.1297C174.887 58.7897 171.935 58.1267 169.979 59.6577C168.024 61.1877 167.799 64.3267 169.478 66.6737V66.6727Z" fill="white"/>
<path d="M164.885 55.4067L145.793 43.9147C145.63 43.8397 145.444 43.8281 145.272 43.8822C145.101 43.9362 144.955 44.052 144.864 44.2072C144.773 44.3624 144.742 44.546 144.778 44.7223C144.815 44.8986 144.915 45.0552 145.06 45.1617L164.152 56.6537C164.316 56.7287 164.502 56.7403 164.673 56.6863C164.845 56.6322 164.991 56.5164 165.082 56.3612C165.173 56.206 165.204 56.0225 165.167 55.8461C165.131 55.6698 165.03 55.5132 164.885 55.4067ZM164.1 60.0757L137.785 44.2357C137.624 44.1791 137.448 44.1811 137.288 44.2413C137.128 44.3016 136.995 44.4162 136.911 44.5652C136.827 44.7142 136.798 44.8879 136.83 45.0559C136.861 45.2238 136.951 45.3753 137.083 45.4837L163.367 61.3297C163.531 61.4059 163.718 61.4184 163.89 61.3646C164.063 61.3108 164.209 61.1946 164.301 61.0387C164.392 60.8828 164.422 60.6984 164.385 60.5215C164.348 60.3445 164.247 60.1877 164.1 60.0817V60.0757Z" fill="#F2F2F2"/>
<path d="M171.337 61.4579L124.553 32.9309C124.303 32.7859 124.018 32.7106 123.728 32.7129C123.439 32.7153 123.155 32.7951 122.907 32.9441C122.659 33.0931 122.455 33.3059 122.317 33.5603C122.178 33.8148 122.111 34.1016 122.121 34.3909V50.6409C122.114 51.2409 122.421 51.7999 122.931 52.1139L169.735 80.0439C169.984 80.1867 170.266 80.2607 170.552 80.2585C170.839 80.2563 171.119 80.1779 171.366 80.0313C171.612 79.8847 171.815 79.6753 171.953 79.4244C172.092 79.1736 172.161 78.8904 172.154 78.6039L172.398 63.4449C172.409 63.0501 172.317 62.6594 172.131 62.311C171.945 61.9626 171.671 61.6686 171.337 61.4579Z" fill="#F47B56"/>
<path d="M160.14 69.8251C161.819 72.1721 164.77 72.8281 166.726 71.2981C168.681 69.7681 168.906 66.6221 167.227 64.2811C165.548 61.9411 162.596 61.2781 160.64 62.8091C158.685 64.3391 158.461 67.4781 160.14 69.8251Z" fill="white"/>
<path d="M155.546 58.5578L136.44 47.0658C136.276 46.9896 136.089 46.9772 135.917 47.031C135.744 47.0848 135.598 47.201 135.506 47.3569C135.415 47.5127 135.385 47.6971 135.422 47.8741C135.459 48.051 135.56 48.2078 135.707 48.3138L154.799 59.8058C154.963 59.8821 155.149 59.8945 155.322 59.8407C155.494 59.7869 155.641 59.6707 155.732 59.5148C155.824 59.359 155.854 59.1746 155.817 58.9976C155.78 58.8207 155.678 58.6639 155.532 58.5578H155.545H155.546ZM154.755 63.2588L128.445 47.3938C128.281 47.3176 128.094 47.3052 127.922 47.359C127.749 47.4128 127.603 47.529 127.511 47.6849C127.42 47.8407 127.39 48.0251 127.427 48.2021C127.464 48.379 127.565 48.5358 127.712 48.6418L154.028 64.4808C154.192 64.5571 154.378 64.5695 154.551 64.5157C154.723 64.4619 154.87 64.3457 154.961 64.1898C155.053 64.034 155.083 63.8496 155.046 63.6726C155.009 63.4957 154.907 63.3389 154.761 63.2328L154.755 63.2588Z" fill="#F2F2F2"/>
<path d="M159.597 63.3749L112.801 34.8469C112.551 34.7019 112.266 34.6266 111.976 34.629C111.687 34.6313 111.403 34.7111 111.155 34.8601C110.907 35.0091 110.703 35.2219 110.565 35.4764C110.426 35.7308 110.359 36.0176 110.369 36.3069V52.5579C110.367 52.852 110.442 53.1416 110.585 53.3985C110.728 53.6554 110.935 53.8709 111.186 54.0239L157.989 81.9539C158.238 82.0967 158.52 82.1708 158.806 82.1685C159.093 82.1663 159.374 82.0879 159.62 81.9413C159.866 81.7947 160.069 81.5853 160.207 81.3344C160.346 81.0836 160.415 80.8004 160.408 80.5139L160.652 65.3549C160.673 64.5549 160.272 63.8039 159.597 63.3749Z" fill="#68E1FD"/>
<path d="M159.597 63.3749L112.801 34.8469C112.551 34.7019 112.266 34.6266 111.976 34.629C111.687 34.6313 111.403 34.7111 111.155 34.8601C110.907 35.0091 110.703 35.2219 110.565 35.4764C110.426 35.7308 110.359 36.0176 110.369 36.3069V52.5579C110.367 52.852 110.442 53.1416 110.585 53.3985C110.728 53.6554 110.935 53.8709 111.186 54.0239L157.989 81.9539C158.238 82.0967 158.52 82.1708 158.806 82.1685C159.093 82.1663 159.374 82.0879 159.62 81.9413C159.866 81.7947 160.069 81.5853 160.207 81.3344C160.346 81.0836 160.415 80.8004 160.408 80.5139L160.652 65.3549C160.673 64.5549 160.272 63.8039 159.597 63.3749Z" fill="#68E1FD"/>
<path d="M148.392 71.7413C150.071 74.0893 153.023 74.7453 154.979 73.2143C156.934 71.6843 157.159 68.5393 155.48 66.1983C153.802 63.8583 150.849 63.1953 148.894 64.7253C146.938 66.2553 146.732 69.3953 148.392 71.7413Z" fill="white"/>
<path d="M143.799 60.4742L124.701 48.9832C124.537 48.9061 124.35 48.893 124.177 48.9465C124.004 49 123.857 49.1163 123.765 49.2725C123.673 49.4287 123.643 49.6136 123.68 49.791C123.717 49.9683 123.82 50.1253 123.967 50.2312L143.059 61.7232C143.223 61.8003 143.41 61.8134 143.583 61.7599C143.756 61.7064 143.903 61.5901 143.995 61.4339C144.087 61.2776 144.117 61.0927 144.08 60.9154C144.042 60.738 143.94 60.581 143.793 60.4752H143.799V60.4742ZM143.008 65.1502L116.692 49.3102C116.528 49.234 116.341 49.2215 116.169 49.2753C115.996 49.3291 115.85 49.4453 115.758 49.6012C115.667 49.7571 115.637 49.9415 115.674 50.1184C115.711 50.2954 115.812 50.4522 115.959 50.5582L142.274 66.3982C142.438 66.4753 142.625 66.4884 142.798 66.4349C142.971 66.3814 143.118 66.2651 143.21 66.1089C143.302 65.9526 143.332 65.7677 143.295 65.5904C143.257 65.413 143.155 65.256 143.008 65.1502Z" fill="#F2F2F2"/>
<path d="M98.1796 61.7803C95.1556 64.3822 92.8686 67.7331 91.5476 71.4973C89.2196 77.9273 95.0406 88.4363 95.0406 88.4363L104.098 81.2663" fill="#FF8F6F"/>
<path d="M97.2021 146.803L94.7441 145.446L95.3881 141.935C95.3881 141.935 99.0481 142.282 99.3691 143.581" fill="#003B94"/>
<path d="M98.1026 146.751C98.6556 146.411 99.2346 146.108 99.8076 145.806C101.229 145.028 103.281 144.224 104.156 142.764C104.335 142.469 104.42 142.126 104.399 141.782C104.378 141.437 104.253 141.107 104.04 140.835C102.754 139.279 99.9356 141.838 98.4956 140.115C98.2126 139.774 98.0766 134.365 98.0766 134.365L92.5966 135.845C92.5966 135.845 91.6706 146.713 91.7736 147.382C91.8756 148.05 93.7606 148.668 93.7606 148.668C94.3216 148.549 94.8576 148.331 95.3436 148.025C95.9156 147.607 95.3946 142.507 96.1276 143.221C96.8616 143.935 97.1826 146.726 97.1826 146.726C97.4876 146.772 97.7966 146.78 98.1026 146.751Z" fill="#F47B56"/>
<path d="M107.667 152.057L105.21 150.719L105.853 147.208C105.853 147.208 109.513 147.555 109.835 148.854" fill="#003B94"/>
<path d="M108.594 152.005C109.147 151.665 109.726 151.362 110.298 151.06C111.72 150.282 113.772 149.478 114.647 148.018C114.826 147.723 114.911 147.38 114.89 147.036C114.87 146.691 114.744 146.361 114.531 146.089C113.244 144.533 110.427 147.092 108.986 145.369C108.703 145.028 108.568 139.619 108.568 139.619L103.088 141.099C103.088 141.099 102.155 152.005 102.258 152.649C102.36 153.292 104.245 153.935 104.245 153.935C104.806 153.816 105.342 153.598 105.828 153.292C106.4 152.874 105.879 147.774 106.612 148.488C107.346 149.202 107.667 151.993 107.667 151.993C107.974 152.035 108.286 152.039 108.594 152.005Z" fill="#F47B56"/>
<path d="M89.8113 116.726L88.1963 138.314C88.1963 138.314 90.7693 141.864 99.3963 139.89L99.4793 125.337L89.8113 116.726ZM99.7753 121.003C99.5883 122.861 99.7753 143.363 99.7753 143.363C99.7753 143.363 102.161 147.825 112.55 143.363L112.402 125.941" fill="#3E2928"/>
<path d="M89 124.276C89.707 124.766 89.952 122.251 90.691 122.682C93.382 124.245 96.239 125.504 99.208 126.437H99.272C99.343 126.403 99.42 126.383 99.498 126.379C99.577 126.375 99.656 126.387 99.73 126.414C99.804 126.441 99.871 126.483 99.929 126.536C99.986 126.59 100.032 126.655 100.064 126.727C101.898 127.274 103.764 127.703 105.654 128.013C108.078 128.399 110.085 126.604 112.574 126.483C112.574 116.952 112.62 89.826 108.561 84.038L96.551 80C96.493 80.99 90.723 87.678 90.865 95.833C91.025 105.023 89.829 113.691 89.623 116.566C89.591 117.055 89.025 123.756 89 124.276Z" fill="#3E2928"/>
<path d="M109.674 72.6606L108.568 83.5936C108.568 83.5936 99.608 83.9536 95.748 81.2906V72.0176" fill="#FF8F6F"/>
<path d="M121.067 65.4653L120.154 66.7123C120.641 65.6976 121.07 64.6563 121.44 63.5933C121.698 62.8673 120.533 62.5773 120.276 63.3043L120.141 63.6773C120.253 63.2913 120.358 62.9033 120.456 62.5133C120.477 62.4361 120.483 62.3554 120.473 62.2759C120.462 62.1964 120.436 62.1198 120.396 62.0506C120.355 61.9814 120.302 61.921 120.238 61.8729C120.173 61.8248 120.1 61.7901 120.023 61.7707C119.945 61.7514 119.864 61.7478 119.785 61.7601C119.706 61.7725 119.63 61.8006 119.562 61.8428C119.494 61.885 119.435 61.9404 119.388 62.0057C119.342 62.0711 119.309 62.1451 119.292 62.2233C119.039 63.2328 118.737 64.2291 118.385 65.2083C118.581 64.3391 118.723 63.4583 118.81 62.5713C118.887 61.8063 117.684 61.8383 117.613 62.5713C117.513 63.5813 117.333 64.5813 117.073 65.5613C117.072 65.216 117.04 64.8716 116.976 64.5323C116.967 64.447 116.94 64.3645 116.897 64.2904C116.854 64.2162 116.796 64.1521 116.726 64.1023C116.693 63.9673 116.654 63.8338 116.61 63.7023C116.564 63.5675 116.473 63.4531 116.351 63.3792C116.229 63.3052 116.086 63.2765 115.945 63.2979C115.805 63.3194 115.676 63.3898 115.582 63.4967C115.488 63.6035 115.435 63.7401 115.432 63.8823L115.355 68.3843C115.137 68.8513 114.854 69.2843 114.513 69.6713C115.091 70.0713 115.65 70.5013 116.185 70.9573C116.663 71.3603 117.118 71.7903 117.549 72.2433C117.935 71.7633 118.306 71.2743 118.662 70.7773C118.706 70.7397 118.744 70.6963 118.777 70.6483C119.848 69.063 120.955 67.502 122.097 65.9663C122.573 65.4393 121.524 64.8543 121.067 65.4653Z" fill="#FFB5A9"/>
<path d="M103.988 62.6934C103.988 62.6934 108.221 63.8314 109.938 66.5524C111.014 68.4349 111.962 70.3877 112.775 72.3974L115.901 67.5424C115.901 67.5424 119.696 68.7064 121.201 70.5714C121.201 70.5714 116.699 80.4114 112.775 81.2534C108.851 82.0954 104.683 75.4784 104.683 75.4784C104.683 75.4784 103.821 78.2434 103.988 75.2914" fill="#FF8F6F"/>
<path d="M106.677 73.2083C105.447 72.2077 104.518 70.8853 103.994 69.3883C103.486 67.6583 104.123 66.1403 104.714 64.5323C105.355 62.9387 105.729 61.2504 105.821 59.5353C105.873 57.8513 105.68 56.1653 105.564 54.4873C105.548 54.4155 105.548 54.341 105.564 54.2693C104.998 52.3713 103.84 50.7643 101.556 50.5713C95.6453 50.0693 95.3103 56.6163 95.3563 59.2783C95.4003 61.9413 95.6843 63.7413 93.7223 64.8543C91.7603 65.9663 90.3443 68.8863 92.2163 71.2463C94.0883 73.6063 92.4093 72.7453 91.1613 74.8413C89.9143 76.9383 90.2353 79.5553 92.7953 80.5013C95.3553 81.4463 107.255 79.6713 108.349 78.5713C108.738 78.1282 108.938 77.5516 108.909 76.9633C108.642 75.4835 107.85 74.15 106.677 73.2083Z" fill="#007F68"/>
<path d="M112.492 19.2124C113.494 20.6541 114.073 22.3471 114.164 24.1004C114.276 24.9032 114.081 25.7186 113.617 26.3834C113.42 26.6003 113.156 26.7452 112.867 26.7954C112.578 26.8456 112.281 26.7981 112.022 26.6604C111.697 26.5306 111.403 26.3328 111.16 26.0804C110.942 25.8759 110.755 25.64 110.607 25.3804L110.453 25.0784C110.411 25.1574 110.359 25.2304 110.298 25.2964C110.145 25.4164 109.963 25.4934 109.771 25.5214C109.449 25.5814 109.117 25.5414 108.819 25.4064C108.108 25.0988 107.516 24.568 107.133 23.8944C106.672 23.163 106.414 22.3217 106.387 21.4574C106.292 20.7574 106.511 20.0514 106.985 19.5274C107.189 19.3308 107.449 19.2019 107.728 19.1582C108.008 19.1146 108.295 19.1583 108.549 19.2834C108.807 19.3864 109.044 19.5344 109.249 19.7214C109.425 19.8704 109.581 20.0414 109.713 20.2294L109.829 20.4354V19.8624L111.115 20.3644L111.244 23.9784C111.253 24.2374 111.333 24.4884 111.475 24.7054C111.596 24.9144 111.781 25.0784 112.003 25.1754C112.625 25.4194 112.912 24.8834 112.865 23.5664C112.8 22.2629 112.37 21.0039 111.623 19.9334C110.952 18.8442 109.955 17.994 108.773 17.5034C108.344 17.2856 107.86 17.2016 107.383 17.2622C106.906 17.3229 106.459 17.5253 106.098 17.8434C105.714 18.2293 105.421 18.6967 105.242 19.211C105.062 19.7252 105.001 20.2732 105.062 20.8144C105.136 22.1932 105.58 23.5265 106.349 24.6734C106.961 25.8061 107.925 26.7089 109.095 27.2454C109.503 27.4154 109.94 27.5004 110.382 27.4954C110.669 27.5154 110.957 27.4624 111.218 27.3414L111.475 27.2004L112.254 28.6474L112.125 28.7374C112.003 28.8054 111.876 28.8664 111.745 28.9174C111.54 29.0064 111.324 29.0674 111.102 29.0974C110.818 29.1355 110.531 29.1355 110.247 29.0974C109.874 29.0528 109.509 28.9597 109.16 28.8204C108.17 28.3947 107.29 27.7482 106.587 26.9304C105.755 26.0103 105.081 24.9583 104.593 23.8174C104.104 22.7282 103.825 21.5569 103.769 20.3644C103.7 19.362 103.904 18.3595 104.361 17.4644C104.74 16.7131 105.395 16.1371 106.188 15.8564C107.019 15.5826 107.923 15.6282 108.722 15.9844C110.283 16.644 111.6 17.7724 112.492 19.2134V19.2124ZM109.655 23.7854C109.866 23.5154 109.961 23.1734 109.919 22.8334C109.909 22.4141 109.791 22.0045 109.578 21.6434C109.403 21.3283 109.13 21.0798 108.799 20.9364C108.672 20.8714 108.529 20.8464 108.388 20.8648C108.247 20.8832 108.115 20.9441 108.009 21.0394C107.898 21.1656 107.815 21.3142 107.766 21.4751C107.717 21.6361 107.703 21.8056 107.725 21.9724C107.74 22.3964 107.866 22.8084 108.092 23.1684C108.277 23.4944 108.564 23.7524 108.909 23.9014C109.156 24.0284 109.457 23.9814 109.655 23.7854ZM188.441 88.8474C189.444 90.288 190.024 91.9811 190.113 93.7344C190.225 94.537 190.03 95.3524 189.567 96.0174C189.369 96.2336 189.105 96.3781 188.816 96.4282C188.527 96.4783 188.23 96.4313 187.971 96.2944C187.647 96.1627 187.353 95.9652 187.109 95.7144C186.892 95.5088 186.706 95.2731 186.556 95.0144L186.402 94.7124C186.358 94.7904 186.306 94.8635 186.247 94.9304C186.095 95.0504 185.913 95.1294 185.72 95.1554C185.401 95.2194 185.07 95.1814 184.774 95.0464C184.062 94.737 183.471 94.2041 183.089 93.5284C182.623 92.7964 182.363 91.9526 182.336 91.0854C182.237 90.3854 182.456 89.6774 182.935 89.1554C183.138 88.9596 183.396 88.8311 183.674 88.7875C183.953 88.7438 184.238 88.7871 184.491 88.9114C184.749 89.0134 184.987 89.1614 185.192 89.3484C185.368 89.5004 185.523 89.6734 185.656 89.8634L185.778 90.0684V89.4964L187.064 89.9914L187.193 93.6054C187.204 93.8644 187.284 94.1154 187.424 94.3324C187.545 94.5424 187.73 94.7064 187.952 94.8024C188.595 95.0464 188.859 94.5124 188.82 93.1944C188.755 91.8889 188.325 90.6279 187.579 89.5544C186.908 88.4691 185.914 87.6214 184.736 87.1304C184.308 86.9124 183.824 86.8277 183.347 86.8873C182.87 86.9468 182.422 87.1478 182.06 87.4644C181.678 87.8548 181.388 88.3263 181.213 88.844C181.039 89.3617 180.983 89.9122 181.05 90.4544C181.122 91.8333 181.566 93.167 182.336 94.3134C182.972 95.4194 183.947 96.2919 185.116 96.8024C185.523 96.9724 185.96 97.0594 186.402 97.0594C186.689 97.0764 186.976 97.0234 187.238 96.9044L187.495 96.7634L188.274 98.2104L188.144 98.3004C188.023 98.3694 187.896 98.4294 187.765 98.4804C187.559 98.5656 187.343 98.626 187.122 98.6604C186.836 98.6983 186.546 98.6983 186.26 98.6604C185.889 98.6134 185.526 98.5183 185.18 98.3774C184.19 97.9534 183.31 97.309 182.607 96.4934C181.774 95.5709 181.1 94.5166 180.612 93.3734C180.124 92.2846 179.844 91.1135 179.789 89.9214C179.719 88.9209 179.924 87.9202 180.381 87.0274C180.761 86.2751 181.415 85.6971 182.208 85.4124C183.042 85.1419 183.946 85.1882 184.748 85.5424C186.291 86.2361 187.581 87.3907 188.441 88.8474ZM185.604 93.4194C185.817 93.1504 185.914 92.8084 185.874 92.4674C185.863 92.0475 185.743 91.6375 185.527 91.2774C185.356 90.9622 185.084 90.7134 184.755 90.5704C184.629 90.5044 184.486 90.4783 184.344 90.4956C184.203 90.5129 184.07 90.5728 183.964 90.6674C183.851 90.7925 183.767 90.9406 183.717 91.1016C183.667 91.2625 183.652 91.4323 183.674 91.5994C183.689 92.0214 183.816 92.4324 184.041 92.7894C184.226 93.1174 184.513 93.3774 184.858 93.5294C184.978 93.592 185.115 93.615 185.249 93.5953C185.383 93.5755 185.507 93.514 185.604 93.4194Z" fill="#F47B56"/>
<path style="mix-blend-mode:multiply" opacity="0.25" d="M60.2529 116.269L38.4789 103.883L16.7109 116.295C16.7109 116.295 28.8239 123.857 39.6619 130.211C46.5449 125.349 52.6619 119.787 60.2529 116.269Z" fill="url(#paint4_linear)"/>
<path d="M20.9297 81.4706V108.406L41.9137 120.423L65.6077 106.41V79.4756" fill="black"/>
<path d="M20.9297 81.4706V108.406L41.9137 120.423L65.6077 106.41V79.4756" fill="#FF9271"/>
<path d="M41.9131 93.4886V120.424L65.6071 106.411V79.4756L41.9131 93.4886Z" fill="#DF5C34"/>
<path d="M20.9297 81.4708L45.2767 67.5928L65.6067 79.4758L41.9137 93.4888L20.9297 81.4708Z" fill="#F47B56"/>
<path d="M42.4702 73.7746C44.939 73.6079 47.404 74.151 49.5742 75.3396C50.8172 76.0706 51.4962 76.8336 51.5922 77.6296C51.6882 78.4246 51.2782 79.1166 50.3112 79.6996C49.8524 79.983 49.3469 80.1828 48.8182 80.2896C48.3842 80.3926 47.9382 80.4386 47.4922 80.4246L47.0052 80.3866C47.0512 80.4956 47.0812 80.6096 47.0952 80.7266C47.0801 81.0033 46.9917 81.2711 46.8392 81.5026C46.5852 81.9326 46.2232 82.2886 45.7892 82.5346C44.7769 83.1361 43.6166 83.4426 42.4392 83.4196C41.2209 83.4526 40.017 83.1488 38.9602 82.5416C37.9612 81.9516 37.4492 81.2586 37.4102 80.4636C37.4141 80.0426 37.5362 79.6311 37.7627 79.2763C37.9893 78.9214 38.311 78.6373 38.6912 78.4566C39.0563 78.2288 39.4538 78.0578 39.8702 77.9496C40.202 77.8538 40.5435 77.7957 40.8882 77.7766H41.2412L40.6002 77.3916L42.4002 76.2696L46.5702 78.7256C46.8891 78.8973 47.2456 78.9872 47.6077 78.9872C47.9699 78.9872 48.3264 78.8973 48.6452 78.7256C49.5292 78.1746 49.2132 77.4496 47.6972 76.5516C46.0861 75.6642 44.2546 75.2568 42.4192 75.3776C40.474 75.4014 38.5711 75.9486 36.9102 76.9616C35.3992 77.9066 34.6502 79.0336 34.6622 80.3416C34.6622 81.6246 35.4622 82.7656 37.0192 83.6826C38.7192 84.6326 40.6482 85.0926 42.5922 85.0106C44.5285 85.0424 46.4356 84.5363 48.1012 83.5486C48.6774 83.2067 49.1942 82.7734 49.6312 82.2656C49.9242 81.9556 50.1432 81.5826 50.2722 81.1756L50.3622 80.7716L52.7382 80.9056C52.7422 80.9786 52.7422 81.0516 52.7382 81.1246C52.6952 81.3206 52.6372 81.5136 52.5652 81.7016C52.4622 82.0016 52.3252 82.2916 52.1552 82.5606C51.9112 82.9246 51.6282 83.2606 51.3102 83.5606C50.8902 83.9656 50.4302 84.3226 49.9332 84.6256C48.5032 85.484 46.9192 86.0547 45.2702 86.3056C43.4732 86.6194 41.6382 86.6518 39.8312 86.4016C38.1886 86.2082 36.6011 85.6894 35.1612 84.8756C33.9992 84.2599 33.0687 83.2831 32.5102 82.0926C32.2819 81.5731 32.1641 81.0119 32.1641 80.4446C32.1641 79.8772 32.2819 79.316 32.5102 78.7966C33.0636 77.5839 33.9849 76.5762 35.1432 75.9166C37.3501 74.5602 39.8803 73.8205 42.4702 73.7746ZM44.8022 80.4056C44.7603 80.1864 44.6655 79.9808 44.5261 79.8065C44.3866 79.6322 44.2068 79.4946 44.0022 79.4056C43.4973 79.1082 42.9222 78.9512 42.3362 78.9506C41.792 78.9299 41.2535 79.0678 40.7862 79.3476C40.4022 79.5346 40.1552 79.9206 40.1462 80.3476C40.2042 80.7926 40.4912 81.1746 40.9012 81.3546C41.4173 81.6495 42.004 81.7981 42.5982 81.7846C43.1695 81.799 43.7333 81.6524 44.2252 81.3616C44.5982 81.1916 44.8352 80.8156 44.8282 80.4056" fill="#3E2928"/>
<defs>
<linearGradient id="paint0_linear" x1="134.632" y1="101.865" x2="127.637" y2="111.343" gradientUnits="userSpaceOnUse">
<stop stop-color="#78B46A"/>
<stop offset="0.03" stop-color="#7F3500"/>
<stop offset="1" stop-color="white"/>
</linearGradient>
<linearGradient id="paint1_linear" x1="108.742" y1="143.213" x2="94.0612" y2="159.307" gradientUnits="userSpaceOnUse">
<stop stop-color="#78B46A"/>
<stop offset="0.03" stop-color="#7F3500"/>
<stop offset="1" stop-color="white"/>
</linearGradient>
<linearGradient id="paint2_linear" x1="76.837" y1="75.6813" x2="65.8339" y2="87.7451" gradientUnits="userSpaceOnUse">
<stop stop-color="#78B46A"/>
<stop offset="0.03" stop-color="#7F3500"/>
<stop offset="1" stop-color="white"/>
</linearGradient>
<linearGradient id="paint3_linear" x1="179.577" y1="75.8171" x2="172.978" y2="71.0063" gradientUnits="userSpaceOnUse">
<stop stop-color="white" stop-opacity="0"/>
<stop offset="0.99" stop-color="#DC841E"/>
</linearGradient>
<linearGradient id="paint4_linear" x1="52.4951" y1="111.15" x2="37.6007" y2="127.478" gradientUnits="userSpaceOnUse">
<stop stop-color="#78B46A"/>
<stop offset="0.03" stop-color="#7F3500"/>
<stop offset="1" stop-color="white"/>
</linearGradient>
</defs>
</svg>
