<svg width="22" height="22" viewBox="0 0 22 22" fill="none" xmlns="http://www.w3.org/2000/svg">
<path d="M11 3.375C12.45 3.375 13.625 4.55 13.625 6C13.625 7.45 12.45 8.625 11 8.625C9.55 8.625 8.375 7.45 8.375 6C8.375 4.55 9.55 3.375 11 3.375ZM11 14.625C14.7125 14.625 18.625 16.45 18.625 17.25V18.625H3.375V17.25C3.375 16.45 7.2875 14.625 11 14.625ZM11 1C8.2375 1 6 3.2375 6 6C6 8.7625 8.2375 11 11 11C13.7625 11 16 8.7625 16 6C16 3.2375 13.7625 1 11 1ZM11 12.25C7.6625 12.25 1 13.925 1 17.25V21H21V17.25C21 13.925 14.3375 12.25 11 12.25Z" fill="#D79CA7" stroke="#FFC1CC"/>
</svg>
